<svg id="icon-Presentation_w" viewBox="0 0 42 42" width="100%" height="100%" xmlns="http://www.w3.org/2000/svg">
	<g transform="matrix(1,0,0,1,-1292,-7775.29)">
		<g transform="matrix(1,0,0,1,879.312,6754.78)">
			<path d="M449.262,1034.58C450.012,1034.45 450.7,1034.27 451.325,1034.02C451.325,1035.14 451.044,1036.27 450.481,1037.39C448.794,1040.45 446.403,1042.94 443.309,1044.85C440.216,1046.75 436.95,1046.89 433.512,1045.27C428.95,1043.08 425.294,1042.33 422.544,1043.02C422.481,1043.02 422.45,1043.02 422.45,1043.02L422.262,1043.11C421.325,1043.42 421.375,1043.45 420.688,1043.2L420.688,1024.74C420.688,1023.99 422.044,1021.64 422.919,1021.45C429.106,1020.33 433.731,1022.64 436.794,1028.39C439.481,1033.45 443.637,1035.52 449.262,1034.58Z" style="fill:white;fill-rule:nonzero;"></path>
		</g>
		<g transform="matrix(1,0,0,1,879.312,6754.78)">
			<path d="M417.688,1020.52C418.188,1020.52 418.688,1020.77 418.688,1021.27L418.688,1061.77C418.688,1062.27 418.188,1062.52 417.688,1062.52L416.438,1062.52C415.938,1062.52 415.688,1062.27 415.688,1061.77L415.688,1021.27C415.688,1020.77 415.938,1020.52 416.438,1020.52L417.688,1020.52Z" style="fill:white;fill-opacity:0.5;fill-rule:nonzero;"></path>
		</g>
	</g>
</svg>