<svg id="icon-Pitching_w" viewBox="0 0 42 42" width="100%" height="100%" xmlns="http://www.w3.org/2000/svg">
	<g transform="matrix(1,0,0,1,-569,-7775.57)">
		<g transform="matrix(1,0,0,1,-20523.5,4392)">
			<path d="M21113.5,3410.56C21109.5,3410.56 21107.5,3408.56 21107.5,3404.56C21107.5,3400.56 21109.5,3398.56 21113.5,3398.56C21117.5,3398.56 21119.5,3400.56 21119.5,3404.56C21119.5,3408.56 21117.5,3410.56 21113.5,3410.56Z" style="fill:white;fill-rule:nonzero;"></path>
		</g>
		<g transform="matrix(1,0,0,1,-20523.5,4392)">
			<path d="M21104.3,3399.87C21103.5,3401.37 21103,3402.94 21103,3404.56C21103,3406.19 21103.5,3407.75 21104.3,3409.25C21105.1,3410.75 21106.1,3411.91 21107.4,3412.72L21105.2,3415.06C21104.3,3414.25 21103.7,3413.75 21103.5,3413.56C21101.2,3411.19 21100,3408.19 21100,3404.56C21100,3400.94 21101.2,3397.94 21103.5,3395.56C21103.7,3395.37 21104.3,3394.87 21105.2,3394.06L21107.4,3396.41C21106.1,3397.22 21105.1,3398.37 21104.3,3399.87ZM21122.8,3409.25C21123.6,3407.75 21124,3406.19 21124,3404.56C21124,3402.94 21123.6,3401.37 21122.8,3399.87C21122,3398.37 21121,3397.22 21119.7,3396.41L21121.9,3394.06C21122.8,3394.87 21123.4,3395.37 21123.6,3395.56C21125.9,3397.94 21127,3400.94 21127,3404.56C21127,3408.19 21125.9,3411.19 21123.6,3413.56C21123.4,3413.75 21122.8,3414.25 21121.9,3415.06L21119.7,3412.72C21121,3411.91 21122,3410.75 21122.8,3409.25ZM21095.5,3404.56C21095.5,3407.06 21096.1,3409.47 21097.1,3411.78C21098.1,3413.91 21099.5,3415.75 21101.5,3417.31L21099.4,3419.56C21098.6,3418.94 21098.1,3418.44 21097.8,3418.06C21096.2,3416.44 21095,3414.41 21094,3411.97C21093,3409.66 21092.5,3407.19 21092.5,3404.56C21092.5,3401.94 21093,3399.47 21094,3397.16C21095,3394.72 21096.2,3392.69 21097.8,3391.06C21098.1,3390.69 21098.6,3390.19 21099.4,3389.56L21101.5,3391.81C21100.8,3392.44 21100,3393.28 21099.1,3394.34C21098.6,3394.97 21098,3395.97 21097.2,3397.34C21096.7,3398.22 21096.3,3399.37 21096,3400.81C21095.7,3402.19 21095.5,3403.44 21095.5,3404.56ZM21130,3411.78C21131,3409.47 21131.5,3407.06 21131.5,3404.56C21131.5,3402.06 21131,3399.66 21130,3397.34C21129,3395.22 21127.5,3393.37 21125.5,3391.81L21127.7,3389.56C21128.5,3390.19 21129,3390.69 21129.3,3391.06C21130.9,3392.69 21132.1,3394.72 21133.1,3397.16C21134.1,3399.53 21134.5,3402 21134.5,3404.56C21134.5,3407.19 21134.1,3409.66 21133.1,3411.97C21132.1,3414.41 21130.9,3416.44 21129.3,3418.06C21129,3418.37 21128.5,3418.87 21127.7,3419.56L21125.5,3417.31C21127.5,3415.75 21129,3413.91 21130,3411.78Z" style="fill:white;fill-opacity:0.5;fill-rule:nonzero;"></path>
		</g>
	</g>
</svg>