<svg id="icon-Team_w" viewBox="0 0 42 42" width="100%" height="100%" xmlns="http://www.w3.org/2000/svg">
	<g transform="matrix(1,0,0,1,-809.325,-7775.29)">
		<g transform="matrix(1,0,0,1,397,6754.78)">
			<path d="M439.606,1053.52C437.981,1051.02 436.106,1049.36 433.981,1048.55C434.919,1047.8 435.794,1046.7 436.606,1045.27C437.919,1045.77 439.231,1046.02 440.544,1046.02C442.481,1046.02 444.356,1045.52 446.169,1044.52C450.356,1045.77 453.075,1048.77 454.325,1053.52L439.606,1053.52ZM438.106,1036.52C437.294,1032.83 435.325,1029.86 432.2,1028.11C434.2,1025.05 436.981,1023.52 440.544,1023.52C443.231,1023.52 445.559,1024.49 447.528,1026.42C449.497,1028.36 450.481,1030.7 450.481,1033.45C450.481,1036.2 449.497,1038.55 447.528,1040.49C445.559,1042.42 443.231,1043.39 440.544,1043.39C439.606,1043.39 438.606,1043.24 437.544,1042.92C437.919,1041.92 438.137,1041.14 438.2,1040.58C438.887,1040.83 439.669,1040.95 440.544,1040.95C442.106,1040.95 443.512,1040.52 444.762,1039.64C446.012,1038.77 446.919,1037.89 447.481,1036.52L438.106,1036.52Z" style="fill:white;fill-opacity:0.5;fill-rule:nonzero;"></path>
		</g>
		<g transform="matrix(1,0,0,1,397,6754.78)">
			<path d="M431.731,1049.77C433.794,1050.39 435.528,1051.63 436.934,1053.47C438.341,1055.31 439.325,1057.33 439.887,1059.52L412.325,1059.52C412.887,1057.33 413.872,1055.31 415.278,1053.47C416.684,1051.63 418.419,1050.39 420.481,1049.77C422.294,1050.77 424.169,1051.27 426.106,1051.27C428.044,1051.27 429.919,1050.77 431.731,1049.77ZM419.075,1031.67C421.075,1029.74 423.419,1028.77 426.106,1028.77C428.794,1028.77 431.122,1029.74 433.091,1031.67C435.059,1033.61 436.044,1035.95 436.044,1038.7C436.044,1041.45 435.059,1043.8 433.091,1045.74C431.122,1047.67 428.794,1048.64 426.106,1048.64C423.419,1048.64 421.091,1047.67 419.122,1045.74C417.153,1043.8 416.169,1041.45 416.169,1038.7C416.169,1035.95 417.137,1033.61 419.075,1031.67ZM421.887,1044.99C423.137,1045.86 424.544,1046.3 426.106,1046.3C427.669,1046.3 429.075,1045.85 430.325,1044.94C431.575,1044.03 432.481,1042.89 433.044,1041.52L419.169,1041.52C419.731,1042.89 420.637,1044.05 421.887,1044.99Z" style="fill:white;fill-rule:nonzero;"></path>
		</g>
	</g>
</svg>