<svg id="icon-Idea_w" viewBox="0 0 42 42" width="100%" height="100%" xmlns="http://www.w3.org/2000/svg">
	<g transform="matrix(1,0,0,1,-330.649,-7775.29)">
		<g transform="matrix(1,0,0,1,-82.1758,6754.78)">
			<path d="M446.825,1033.74C446.825,1036.3 445.887,1038.89 444.012,1041.52C442.262,1043.89 441.262,1045.3 441.012,1045.74C439.887,1047.67 439.325,1050.23 439.325,1053.42L439.325,1053.51L436.825,1053.51L436.825,1041.52L439.325,1035.52L437.825,1035.52L434.825,1041.52L434.825,1053.51L431.825,1053.51L431.825,1041.52L428.919,1035.52L427.325,1035.52L429.825,1041.52L429.825,1053.51L427.325,1053.51L427.325,1053.42C427.325,1050.35 426.731,1047.8 425.544,1045.74C425.044,1044.86 424.075,1043.45 422.637,1041.52C420.762,1038.89 419.825,1036.3 419.825,1033.74C419.825,1030.11 421.153,1027 423.809,1024.41C426.466,1021.81 429.637,1020.52 433.325,1020.52C437.012,1020.52 440.184,1021.81 442.841,1024.41C445.497,1027 446.825,1030.11 446.825,1033.74Z" style="fill:white;fill-rule:nonzero;"></path>
		</g>
		<g transform="matrix(1,0,0,1,-82.1758,6754.78)">
			<path d="M430.325,1062.52L430.325,1060.52L436.325,1060.52L436.325,1062.52L430.325,1062.52ZM428.825,1059.52L428.825,1057.52L437.825,1057.52L437.825,1059.52L428.825,1059.52ZM428.825,1056.52L428.825,1054.52L437.825,1054.52L437.825,1056.52L428.825,1056.52Z" style="fill:white;fill-opacity:0.5;fill-rule:nonzero;"></path>
		</g>
	</g>
</svg>