<svg id="icon-Realisation_w" viewBox="0 0 42 42" width="100%" height="100%" xmlns="http://www.w3.org/2000/svg">
	<g transform="matrix(1,0,0,1,-1048.69,-7775.29)">
		<g transform="matrix(1,0,0,1,636.363,6754.78)">
			<path d="M448.137,1052.11C448.7,1052.67 448.981,1053.38 448.981,1054.22C448.981,1055.06 448.7,1055.77 448.137,1056.33C447.575,1056.89 446.872,1057.17 446.028,1057.17C445.184,1057.17 444.481,1056.89 443.919,1056.33L437.544,1049.95C436.981,1049.39 436.7,1048.69 436.7,1047.85C436.7,1047 436.981,1046.3 437.544,1045.74C438.106,1045.17 438.809,1044.89 439.653,1044.89C440.497,1044.89 441.2,1045.17 441.762,1045.74L448.137,1052.11Z" style="fill:white;fill-opacity:0.5;fill-rule:nonzero;"></path>
		</g>
		<g transform="matrix(1,0,0,1,636.363,6754.78)">
			<path d="M436.325,1032.52C436.325,1033.39 436.044,1034.11 435.481,1034.67C434.919,1035.24 434.2,1035.52 433.325,1035.52C432.45,1035.52 431.731,1035.24 431.169,1034.67C430.606,1034.11 430.325,1033.39 430.325,1032.52L430.325,1023.52C430.325,1022.64 430.606,1021.92 431.169,1021.36C431.731,1020.8 432.45,1020.52 433.325,1020.52C434.2,1020.52 434.919,1020.8 435.481,1021.36C436.044,1021.92 436.325,1022.64 436.325,1023.52L436.325,1032.52ZM431.169,1048.36C431.731,1047.8 432.45,1047.52 433.325,1047.52C434.2,1047.52 434.919,1047.8 435.481,1048.36C436.044,1048.92 436.325,1049.64 436.325,1050.52L436.325,1059.52C436.325,1060.39 436.044,1061.11 435.481,1061.67C434.919,1062.24 434.2,1062.52 433.325,1062.52C432.45,1062.52 431.731,1062.24 431.169,1061.67C430.606,1061.11 430.325,1060.39 430.325,1059.52L430.325,1050.52C430.325,1049.64 430.606,1048.92 431.169,1048.36ZM451.325,1038.52C452.2,1038.52 452.919,1038.8 453.481,1039.36C454.044,1039.92 454.325,1040.64 454.325,1041.52C454.325,1042.39 454.044,1043.11 453.481,1043.67C452.919,1044.24 452.2,1044.52 451.325,1044.52L442.325,1044.52C441.45,1044.52 440.731,1044.24 440.169,1043.67C439.606,1043.11 439.325,1042.39 439.325,1041.52C439.325,1040.64 439.606,1039.92 440.169,1039.36C440.731,1038.8 441.45,1038.52 442.325,1038.52L451.325,1038.52ZM424.325,1038.52C425.2,1038.52 425.919,1038.8 426.481,1039.36C427.044,1039.92 427.325,1040.64 427.325,1041.52C427.325,1042.39 427.044,1043.11 426.481,1043.67C425.919,1044.24 425.2,1044.52 424.325,1044.52L415.325,1044.52C414.45,1044.52 413.731,1044.24 413.169,1043.67C412.606,1043.11 412.325,1042.39 412.325,1041.52C412.325,1040.64 412.606,1039.92 413.169,1039.36C413.731,1038.8 414.45,1038.52 415.325,1038.52L424.325,1038.52ZM441.762,1037.3C441.2,1037.86 440.497,1038.14 439.653,1038.14C438.809,1038.14 438.106,1037.86 437.544,1037.3C436.981,1036.74 436.7,1036.02 436.7,1035.14C436.7,1034.27 436.981,1033.55 437.544,1032.99L443.919,1026.7C444.481,1026.14 445.184,1025.86 446.028,1025.86C446.872,1025.86 447.575,1026.14 448.137,1026.7C448.7,1027.27 448.981,1027.97 448.981,1028.81C448.981,1029.66 448.7,1030.36 448.137,1030.92L441.762,1037.3ZM426.95,1044.89C427.825,1044.89 428.544,1045.17 429.106,1045.74C429.669,1046.3 429.95,1047 429.95,1047.85C429.95,1048.69 429.669,1049.42 429.106,1050.05L422.731,1056.33C422.169,1056.89 421.466,1057.17 420.622,1057.17C419.778,1057.17 419.075,1056.89 418.512,1056.33C417.95,1055.77 417.669,1055.06 417.669,1054.22C417.669,1053.38 417.95,1052.67 418.512,1052.11L424.794,1045.74C425.356,1045.17 426.075,1044.89 426.95,1044.89ZM429.106,1033.08C429.669,1033.64 429.95,1034.35 429.95,1035.19C429.95,1036.03 429.669,1036.74 429.106,1037.3C428.544,1037.86 427.825,1038.14 426.95,1038.14C426.075,1038.14 425.356,1037.86 424.794,1037.3L418.512,1030.92C417.95,1030.36 417.669,1029.66 417.669,1028.81C417.669,1027.97 417.95,1027.27 418.512,1026.7C419.075,1026.14 419.778,1025.86 420.622,1025.86C421.466,1025.86 422.169,1026.14 422.731,1026.7L429.106,1033.08Z" style="fill:white;fill-rule:nonzero;"></path>
		</g>
	</g>
</svg>