<?xml version="1.0" encoding="UTF-8" standalone="no"?>
<svg xmlns="http://www.w3.org/2000/svg" xmlns:xlink="http://www.w3.org/1999/xlink" xmlns:serif="http://www.serif.com/" width="100%" height="100%" viewBox="0 0 22 22" xml:space="preserve" style="fill-rule:evenodd;clip-rule:evenodd;stroke-linejoin:round;stroke-miterlimit:1.41421;">
    <g transform="matrix(1,0,0,1,-475.625,-1415)">
        <g transform="matrix(1,0,0,1,216.926,1270.45)">
            <path d="M265.824,157.055C265.074,157.055 264.699,156.68 264.699,155.93C264.699,155.18 265.074,154.805 265.824,154.805C266.574,154.805 266.949,155.18 266.949,155.93C266.949,156.68 266.574,157.055 265.824,157.055ZM269.199,157.055C268.449,157.055 268.074,156.68 268.074,155.93C268.074,155.18 268.449,154.805 269.199,154.805C269.949,154.805 270.324,155.18 270.324,155.93C270.324,156.68 269.949,157.055 269.199,157.055ZM272.574,157.055C271.824,157.055 271.449,156.68 271.449,155.93C271.449,155.18 271.824,154.805 272.574,154.805C273.324,154.805 273.699,155.18 273.699,155.93C273.699,156.68 273.324,157.055 272.574,157.055Z" style="fill:white;fill-rule:nonzero;"></path>
        </g>
        <g transform="matrix(1,0,0,1,216.926,1270.45)">
            <path d="M265.871,161.977C265.652,162.195 265.387,162.305 265.074,162.305C264.762,162.305 264.496,162.195 264.277,161.977L259.027,156.727C258.809,156.508 258.699,156.242 258.699,155.93C258.699,155.617 258.809,155.352 259.027,155.133L264.277,149.883C264.496,149.664 264.762,149.555 265.074,149.555C265.387,149.555 265.652,149.664 265.871,149.883C266.09,150.102 266.199,150.367 266.199,150.68C266.199,150.992 266.09,151.258 265.871,151.477L261.418,155.93L265.871,160.383C266.09,160.602 266.199,160.867 266.199,161.18C266.199,161.492 266.09,161.758 265.871,161.977ZM274.121,161.977C273.902,162.195 273.637,162.305 273.324,162.305C273.012,162.305 272.746,162.195 272.527,161.977C272.309,161.758 272.199,161.492 272.199,161.18C272.199,160.867 272.309,160.602 272.527,160.383L276.98,155.93L272.527,151.477C272.309,151.258 272.199,150.992 272.199,150.68C272.199,150.367 272.309,150.102 272.527,149.883C272.746,149.664 273.012,149.555 273.324,149.555C273.637,149.555 273.902,149.664 274.121,149.883L279.371,155.133C279.59,155.352 279.699,155.617 279.699,155.93C279.699,156.242 279.59,156.508 279.371,156.727L274.121,161.977Z" style="fill:white;fill-rule:nonzero;"></path>
        </g>
    </g>
</svg>
