<?xml version="1.0" encoding="UTF-8" standalone="no"?>
<svg xmlns="http://www.w3.org/2000/svg" xmlns:xlink="http://www.w3.org/1999/xlink" xmlns:serif="http://www.serif.com/" width="100%" height="100%" viewBox="0 0 22 22" xml:space="preserve" style="fill-rule:evenodd;clip-rule:evenodd;stroke-linejoin:round;stroke-miterlimit:1.41421;">
    <g transform="matrix(1,0,0,1,-476.625,-1581)">
        <g transform="matrix(1,0,0,1,217.926,1435.57)">
            <path d="M278.996,148.195C279.465,149.383 279.699,150.758 279.699,152.32C279.699,153.914 279.465,155.289 278.996,156.445L278.855,156.867C278.574,157.492 278.199,158.023 277.73,158.461C277.137,159.055 276.605,159.367 276.137,159.398L275.996,159.398C275.684,159.398 275.34,159.32 274.965,159.164L274.496,158.93C273.902,158.68 273.027,158.398 271.871,158.086C270.715,157.773 269.793,157.602 269.105,157.57C268.793,158.195 268.605,158.664 268.543,158.977C268.355,159.82 268.246,160.773 268.215,161.836C268.184,162.93 268.23,164.211 268.355,165.68C268.355,165.711 268.363,165.766 268.379,165.844C268.395,165.922 268.402,165.977 268.402,166.008C268.402,166.289 268.262,166.43 267.98,166.43L264.371,166.43C264.09,166.43 263.949,166.336 263.949,166.148L263.949,165.82C263.98,165.195 264.035,164.539 264.113,163.852C264.191,163.164 264.285,162.555 264.395,162.023C264.504,161.492 264.613,161.008 264.723,160.57C264.832,160.133 264.934,159.773 265.027,159.492L265.168,159.023C265.168,158.992 265.215,158.812 265.309,158.484C265.402,158.156 265.465,157.867 265.496,157.617C265.527,157.461 265.434,157.328 265.215,157.219C264.996,157.109 264.715,156.992 264.371,156.867C264.027,156.742 263.777,156.617 263.621,156.492C262.152,155.617 261.418,154.273 261.418,152.461C261.418,151.523 261.676,150.656 262.191,149.859C262.707,149.062 263.371,148.492 264.184,148.148L267.043,148.148C269.73,148.023 272.277,147.242 274.684,145.805C274.715,145.805 274.746,145.789 274.777,145.758C274.809,145.727 274.84,145.711 274.871,145.711C275.246,145.523 275.621,145.43 275.996,145.43C276.59,145.43 277.168,145.68 277.73,146.18C278.23,146.68 278.605,147.227 278.855,147.82C278.855,147.852 278.871,147.914 278.902,148.008C278.934,148.102 278.965,148.164 278.996,148.195ZM277.918,156.492C278.387,155.336 278.621,153.945 278.621,152.32C278.621,150.727 278.387,149.352 277.918,148.195C277.512,147.289 277.043,146.836 276.512,146.836C276.012,146.836 275.559,147.289 275.152,148.195C274.684,149.352 274.449,150.727 274.449,152.32C274.449,153.945 274.684,155.336 275.152,156.492C275.59,157.523 276.043,158.039 276.512,158.039C276.98,158.039 277.449,157.523 277.918,156.492Z" style="fill:white;fill-rule:nonzero;"></path>
        </g>
        <g transform="matrix(2,0,0,2.5,-451.28,-2257)">
            <ellipse cx="473" cy="1538" rx="0.5" ry="1" style="fill:white;fill-opacity:0.5;"></ellipse>
        </g>
        <g transform="matrix(1,0,0,1,217.926,1435.57)">
            <path d="M260.527,152.461C260.527,154.273 261.309,155.617 262.871,156.492C262.84,156.492 262.824,156.492 262.824,156.492L262.73,156.445L262.637,156.398C262.574,156.398 262.527,156.398 262.496,156.398C261.684,156.336 260.98,156 260.387,155.391C259.793,154.781 259.418,154.039 259.262,153.164C258.887,153.164 258.699,152.914 258.699,152.414C258.699,151.977 258.871,151.727 259.215,151.664C259.371,150.664 259.809,149.828 260.527,149.156C261.246,148.484 262.074,148.148 263.012,148.148L263.387,148.148C262.543,148.492 261.855,149.062 261.324,149.859C260.793,150.656 260.527,151.523 260.527,152.461ZM264.113,163.852C264.191,163.164 263.949,166.336 263.949,166.148L263.949,165.82C263.98,165.195 264.035,164.539 264.113,163.852Z" style="fill:white;fill-opacity:0.5;fill-rule:nonzero;"></path>
        </g>
    </g>
</svg>
