<?xml version="1.0" encoding="UTF-8" standalone="no"?>
<svg xmlns="http://www.w3.org/2000/svg" xmlns:xlink="http://www.w3.org/1999/xlink" xmlns:serif="http://www.serif.com/" width="100%" height="100%" viewBox="0 0 22 22" xml:space="preserve" style="fill-rule:evenodd;clip-rule:evenodd;stroke-linejoin:round;stroke-miterlimit:1.41421;">
    <g transform="matrix(1,0,0,1,-258.699,-145.43)">
        <path d="M261.746,148.523C263.809,146.461 266.293,145.43 269.199,145.43C272.105,145.43 274.582,146.453 276.629,148.5C278.676,150.547 279.699,153.023 279.699,155.93C279.699,158.836 278.676,161.312 276.629,163.359C274.582,165.406 272.105,166.43 269.199,166.43C266.293,166.43 263.816,165.406 261.77,163.359C259.723,161.312 258.699,158.836 258.699,155.93C258.699,153.023 259.715,150.555 261.746,148.523ZM262.027,155.789C262.152,155.883 262.309,155.93 262.496,155.93C262.777,155.93 262.996,155.836 263.152,155.648C263.371,155.336 263.637,155.18 263.949,155.18C264.262,155.18 264.527,155.336 264.746,155.648C264.902,155.836 265.121,155.93 265.402,155.93C265.559,155.93 265.715,155.883 265.871,155.789C266.309,155.508 266.371,155.164 266.059,154.758C265.559,154.039 264.855,153.68 263.949,153.68C263.137,153.68 262.449,154.039 261.887,154.758C261.574,155.133 261.621,155.477 262.027,155.789ZM275.668,158.508C275.887,158.07 275.777,157.742 275.34,157.523C275.215,157.461 275.105,157.43 275.012,157.43C274.73,157.43 274.512,157.555 274.355,157.805C273.949,158.617 273.277,159.258 272.34,159.727C271.402,160.195 270.355,160.43 269.199,160.43C268.012,160.43 266.949,160.195 266.012,159.727C265.074,159.258 264.418,158.633 264.043,157.852C263.918,157.57 263.699,157.43 263.387,157.43C263.23,157.43 263.121,157.445 263.059,157.477C262.59,157.695 262.465,158.023 262.684,158.461C263.184,159.523 264.027,160.367 265.215,160.992C266.402,161.617 267.73,161.93 269.199,161.93C270.637,161.93 271.934,161.625 273.09,161.016C274.246,160.406 275.105,159.57 275.668,158.508ZM276.371,155.789C276.809,155.508 276.871,155.164 276.559,154.758C276.059,154.039 275.355,153.68 274.449,153.68C273.637,153.68 272.949,154.039 272.387,154.758C272.074,155.133 272.121,155.477 272.527,155.789C272.652,155.883 272.809,155.93 272.996,155.93C273.277,155.93 273.496,155.836 273.652,155.648C273.871,155.336 274.137,155.18 274.449,155.18C274.762,155.18 275.027,155.336 275.246,155.648C275.402,155.836 275.621,155.93 275.902,155.93C276.059,155.93 276.215,155.883 276.371,155.789Z" style="fill:rgb(1,198,212);fill-rule:nonzero;"></path>
    </g>
</svg>
