<?xml version="1.0" encoding="UTF-8" standalone="no"?>
<svg xmlns="http://www.w3.org/2000/svg" xmlns:xlink="http://www.w3.org/1999/xlink" xmlns:serif="http://www.serif.com/" width="100%" height="100%" viewBox="0 0 22 22" xml:space="preserve" style="fill-rule:evenodd;clip-rule:evenodd;stroke-linejoin:round;stroke-miterlimit:1.41421;">
    <g transform="matrix(1,0,0,1,-476.625,-1520.25)">
        <g transform="matrix(1,0,0,1,217.926,1375.57)">
            <path d="M272.996,154.805C272.215,154.805 271.543,154.531 270.98,153.984C270.418,153.437 270.137,152.773 270.137,151.992C270.137,151.211 270.418,150.547 270.98,150C271.543,149.453 272.215,149.18 272.996,149.18C273.809,149.18 274.496,149.453 275.059,150C275.621,150.547 275.902,151.211 275.902,151.992C275.902,152.773 275.621,153.437 275.059,153.984C274.496,154.531 273.809,154.805 272.996,154.805ZM272.996,157.383C274.559,157.383 276.066,157.602 277.52,158.039C278.973,158.477 279.699,159.18 279.699,160.148L279.699,162.68L273.699,162.68L273.699,160.148C273.699,159.492 273.59,158.984 273.371,158.625C273.152,158.266 272.762,157.867 272.199,157.43C272.418,157.398 272.684,157.383 272.996,157.383Z" style="fill:white;fill-rule:nonzero;"></path>
        </g>
        <g transform="matrix(1,0,0,1,217.926,1375.57)">
            <path d="M265.402,154.805C264.59,154.805 263.902,154.531 263.34,153.984C262.777,153.437 262.496,152.773 262.496,151.992C262.496,151.211 262.777,150.547 263.34,150C263.902,149.453 264.59,149.18 265.402,149.18C266.184,149.18 266.855,149.453 267.418,150C267.98,150.547 268.262,151.211 268.262,151.992C268.262,152.773 267.98,153.437 267.418,153.984C266.855,154.531 266.184,154.805 265.402,154.805ZM260.996,157.758C262.527,157.164 263.996,156.867 265.402,156.867C266.809,156.867 268.293,157.164 269.855,157.758C271.418,158.352 272.199,159.148 272.199,160.148L272.199,162.68L258.699,162.68L258.699,160.148C258.699,159.148 259.465,158.352 260.996,157.758Z" style="fill:white;fill-rule:nonzero;"></path>
        </g>
    </g>
</svg>
