<?xml version="1.0" encoding="UTF-8" standalone="no"?>
<svg xmlns="http://www.w3.org/2000/svg" xmlns:xlink="http://www.w3.org/1999/xlink" xmlns:serif="http://www.serif.com/" width="100%" height="100%" viewBox="0 0 26 26" xml:space="preserve" style="fill-rule:evenodd;clip-rule:evenodd;stroke-linejoin:round;stroke-miterlimit:1.41421;">
    <g transform="matrix(0.973794,0,0,1,-439.181,-4552.63)">
        <g transform="matrix(1.46497,0,0,1.75853,-440.419,2518.11)">
            <path d="M617.648,1162.06L616.124,1162.06C616.046,1161.83 615.665,1161.21 614.982,1160.72C614.298,1160.24 613.956,1159.7 613.956,1159.11C613.956,1158.64 614.122,1158.2 614.454,1157.79C614.786,1157.38 615.167,1157.1 615.597,1156.94C615.48,1157.41 615.421,1157.82 615.421,1158.17C615.421,1158.53 615.802,1159.01 616.564,1159.64C617.325,1160.26 617.706,1160.81 617.706,1161.28C617.706,1161.51 617.687,1161.94 617.648,1162.06Z" style="fill:white;fill-opacity:0.5;fill-rule:nonzero;"></path>
        </g>
        <g transform="matrix(1.02691,0,0,1,-12.137,0.632813)">
            <path d="M465.286,4577L458.38,4577C457.839,4577 457.41,4576.54 457.094,4576.21C455.243,4574.54 453.844,4572.55 452.896,4570.23C451.632,4567.13 451,4564.56 451,4562.52C451,4561.87 451.632,4561 452.083,4561L471.583,4561C471.854,4561 472.667,4562.15 472.667,4562.52C472.667,4562.89 472.644,4563.19 472.599,4563.42C473.863,4563.65 469.236,4574.1 468.74,4573.92C468.288,4574.52 467.566,4575.29 466.573,4576.21C466.257,4576.54 465.828,4577 465.286,4577ZM463.955,4571.62L463.826,4572.14C463.439,4572.3 463.131,4572.41 462.9,4572.49C462.67,4572.57 462.402,4572.61 462.098,4572.61C461.629,4572.61 461.265,4572.5 461.005,4572.27C460.745,4572.04 460.615,4571.75 460.615,4571.4C460.615,4571.26 460.625,4571.12 460.645,4570.98C460.664,4570.84 460.695,4570.68 460.738,4570.5L461.219,4568.79C461.262,4568.62 461.298,4568.47 461.327,4568.32C461.356,4568.17 461.371,4568.04 461.371,4567.92C461.371,4567.7 461.326,4567.55 461.236,4567.46C461.146,4567.38 460.975,4567.33 460.721,4567.33C460.596,4567.33 460.468,4567.35 460.337,4567.39C460.206,4567.43 460.094,4567.47 460,4567.5L460.129,4566.98C460.445,4566.85 460.748,4566.74 461.037,4566.64C461.326,4566.55 461.6,4566.51 461.857,4566.51C462.322,4566.51 462.681,4566.62 462.933,4566.84C463.185,4567.07 463.311,4567.36 463.311,4567.72C463.311,4567.79 463.302,4567.93 463.284,4568.11C463.267,4568.3 463.234,4568.47 463.188,4568.63L462.707,4570.33C462.668,4570.47 462.633,4570.63 462.602,4570.8C462.57,4570.98 462.555,4571.11 462.555,4571.2C462.555,4571.43 462.605,4571.58 462.707,4571.66C462.809,4571.74 462.984,4571.79 463.234,4571.79C463.352,4571.79 463.484,4571.77 463.633,4571.73C463.781,4571.68 463.889,4571.65 463.955,4571.62ZM464.078,4564.46C464.078,4564.76 463.966,4565.01 463.741,4565.22C463.517,4565.43 463.246,4565.53 462.93,4565.53C462.613,4565.53 462.342,4565.43 462.115,4565.22C461.889,4565.01 461.775,4564.76 461.775,4564.46C461.775,4564.16 461.889,4563.91 462.115,4563.7C462.342,4563.49 462.613,4563.38 462.93,4563.38C463.246,4563.38 463.517,4563.49 463.741,4563.7C463.966,4563.91 464.078,4564.16 464.078,4564.46Z" style="fill:white;"></path>
        </g>
        <g transform="matrix(1,0,0,1,0,-9.38657)">
            <path d="M473.211,4573.43C474.495,4573.66 475.563,4574.3 476.413,4575.33C477.271,4576.37 477.7,4577.57 477.7,4578.91C477.7,4580.3 477.213,4581.55 476.24,4582.67C475.173,4583.87 473.76,4584.48 471.998,4584.48C471.396,4584.48 470.816,4584.4 470.26,4584.27C470.086,4584.22 469.77,4584.12 469.311,4583.95L469.217,4583.92C469.453,4584 470.478,4581.98 470.469,4581.97C470.839,4582.16 471.349,4582.25 471.998,4582.25C473.064,4582.25 473.91,4581.91 474.536,4581.24C475.162,4580.57 475.475,4579.79 475.475,4578.91C475.475,4578.12 475.22,4577.42 474.71,4576.79C474.259,4576.24 473.699,4575.88 473.031,4575.7C473.423,4574.42 473.558,4573.49 473.18,4573.42L473.211,4573.43Z" style="fill:white;fill-opacity:0.5;fill-rule:nonzero;"></path>
        </g>
    </g>
</svg>
