<?xml version="1.0" encoding="UTF-8" standalone="no"?>
<svg xmlns="http://www.w3.org/2000/svg" xmlns:xlink="http://www.w3.org/1999/xlink" xmlns:serif="http://www.serif.com/" width="100%" height="100%" viewBox="0 0 26 26" xml:space="preserve" style="fill-rule:evenodd;clip-rule:evenodd;stroke-linejoin:round;stroke-miterlimit:1.41421;">
    <g transform="matrix(0.973794,0,0,1,-439.181,-4649)">
        <g transform="matrix(0.957513,0,0,0.733317,-133.371,3807.1)">
            <path d="M622.628,1161.7L616.124,1161.7C616.046,1161.47 615.665,1161.21 614.982,1160.72C614.298,1160.24 613.956,1159.7 613.956,1159.11C613.956,1158.64 614.122,1158.2 614.454,1157.79C614.786,1157.38 615.167,1157.1 615.597,1156.94C615.48,1157.41 615.421,1157.82 615.421,1158.17C615.421,1158.53 615.802,1159.01 616.564,1159.64C617.325,1160.26 617.706,1160.81 617.706,1161.28C617.706,1161.51 617.687,1161.59 617.648,1161.7L620.929,1161.7C621.007,1161.31 621.046,1161.14 621.046,1160.99C621.046,1160.4 620.773,1159.89 620.226,1159.46C619.679,1159.03 619.132,1158.56 618.585,1158.03C618.038,1157.5 617.765,1156.85 617.765,1156.07C617.765,1155.25 618.029,1154.48 618.556,1153.78C619.083,1153.08 619.738,1152.63 620.519,1152.43C620.167,1153.68 619.992,1154.37 619.992,1154.48C619.992,1155.07 620.548,1155.88 621.661,1156.91C622.775,1157.95 623.331,1158.86 623.331,1159.64C623.331,1160.26 623.097,1160.88 622.628,1161.7Z" style="fill:white;fill-opacity:0.5;fill-rule:nonzero;"></path>
        </g>
        <g transform="matrix(1.1352,0,0,1.07878,-238.48,3405.78)">
            <path d="M622.628,1161.7L620.929,1161.7C621.007,1161.31 621.046,1161.14 621.046,1160.99C621.046,1160.4 620.773,1159.89 620.226,1159.46C619.679,1159.03 619.132,1158.56 618.585,1158.03C618.038,1157.5 617.765,1156.85 617.765,1156.07C617.765,1155.25 618.029,1154.48 618.556,1153.78C619.083,1153.08 619.738,1152.63 620.519,1152.43C620.167,1153.68 619.992,1154.37 619.992,1154.48C619.992,1155.07 620.548,1155.88 621.661,1156.91C622.775,1157.95 623.331,1158.86 623.331,1159.64C623.331,1160.26 623.097,1160.88 622.628,1161.7Z" style="fill:white;fill-opacity:0.5;fill-rule:nonzero;"></path>
        </g>
        <g transform="matrix(1.18665,0,0,1.18665,-271.991,3280.46)">
            <path d="M627.96,1163.74C629.054,1163.94 625.05,1172.75 624.62,1172.59C624.23,1173.1 623.605,1173.74 622.745,1174.52C622.472,1174.8 622.101,1175.18 621.632,1175.18L615.656,1175.18C615.187,1175.18 614.816,1174.8 614.542,1174.52C612.941,1173.12 611.73,1171.44 610.909,1169.48C609.816,1166.87 609.269,1164.7 609.269,1162.98C609.269,1162.43 609.816,1161.7 610.206,1161.7L627.081,1161.7C627.316,1161.7 628.019,1162.67 628.019,1162.98C628.019,1163.29 627.999,1163.55 627.96,1163.74Z" style="fill:white;fill-rule:nonzero;"></path>
        </g>
        <g transform="matrix(1,0,0,1,0,88)">
            <path d="M473.211,4573.43C474.495,4573.66 475.563,4574.3 476.413,4575.33C477.271,4576.37 477.7,4577.57 477.7,4578.91C477.7,4580.3 477.213,4581.55 476.24,4582.67C475.173,4583.87 473.76,4584.48 471.998,4584.48C471.396,4584.48 470.816,4584.4 470.26,4584.27C470.086,4584.22 469.77,4584.12 469.311,4583.95L469.217,4583.92C469.453,4584 470.478,4581.98 470.469,4581.97C470.839,4582.16 471.349,4582.25 471.998,4582.25C473.064,4582.25 473.91,4581.91 474.536,4581.24C475.162,4580.57 475.475,4579.79 475.475,4578.91C475.475,4578.12 475.22,4577.42 474.71,4576.79C474.259,4576.24 473.699,4575.88 473.031,4575.7C473.423,4574.42 473.558,4573.49 473.18,4573.42L473.211,4573.43Z" style="fill:white;fill-opacity:0.5;fill-rule:nonzero;"></path>
        </g>
    </g>
</svg>
