<svg clip-rule="evenodd" fill-rule="evenodd" stroke-linejoin="round" stroke-miterlimit="1.414" viewBox="0 0 21 18" xmlns="http://www.w3.org/2000/svg"><path d="M.358 8.454l4.666 1.741 1.806 5.808c.115.372.57.51.872.263l2.601-2.12a.778.778 0 0 1 .946-.027l4.691 3.406a.55.55 0 0 0 .861-.332L20.238.663a.55.55 0 0 0-.737-.625L.352 7.425a.55.55 0 0 0 .006 1.029zm6.181.814l9.119-5.616c.163-.101.332.121.191.251l-7.525 6.996a1.557 1.557 0 0 0-.484.933l-.256 1.9c-.034.254-.391.279-.461.034l-.986-3.465a.918.918 0 0 1 .402-1.033z" fill="#fff" fill-rule="nonzero"/></svg>