<svg clip-rule="evenodd" fill-rule="evenodd" stroke-linejoin="round" stroke-miterlimit="1.414" viewBox="0 0 19 19" xmlns="http://www.w3.org/2000/svg"><g fill="#fff" fill-rule="nonzero"><path d="M9.047 0C6.59 0 6.281.01 5.317.054c-.963.044-1.621.197-2.196.421-.595.231-1.1.54-1.603 1.043S.706 2.526.474 3.121c-.223.576-.376 1.233-.42 2.196C.01 6.282 0 6.59 0 9.047c0 2.458.01 2.765.054 3.731.044.963.197 1.62.42 2.196.232.595.541 1.1 1.044 1.603a4.445 4.445 0 0 0 1.603 1.043c.575.224 1.233.377 2.196.421.964.044 1.273.054 3.73.054s2.766-.01 3.731-.054c.963-.044 1.621-.197 2.196-.421a4.453 4.453 0 0 0 1.603-1.043 4.445 4.445 0 0 0 1.043-1.603c.224-.576.377-1.233.421-2.196.044-.966.054-1.273.054-3.731 0-2.457-.01-2.765-.054-3.73-.044-.963-.197-1.62-.421-2.196a4.445 4.445 0 0 0-1.043-1.603A4.44 4.44 0 0 0 14.974.475c-.575-.224-1.233-.377-2.196-.421C11.813.01 11.504 0 9.047 0m0 1.63c2.416 0 2.703.009 3.657.052.882.041 1.36.188 1.679.312a2.81 2.81 0 0 1 1.041.677c.316.316.513.618.676 1.04.124.319.272.799.312 1.68.044.955.053 1.24.053 3.656s-.009 2.702-.053 3.656c-.04.882-.188 1.362-.312 1.68-.163.423-.36.725-.676 1.041a2.81 2.81 0 0 1-1.041.677c-.319.124-.797.271-1.679.311-.954.044-1.241.053-3.657.053s-2.703-.009-3.656-.053c-.882-.04-1.361-.187-1.68-.311a2.806 2.806 0 0 1-1.04-.677 2.79 2.79 0 0 1-.677-1.041c-.123-.318-.272-.798-.312-1.68-.043-.954-.053-1.24-.053-3.656s.01-2.701.053-3.656c.04-.881.189-1.361.312-1.68.164-.422.36-.724.677-1.04a2.806 2.806 0 0 1 1.04-.677c.319-.124.798-.271 1.68-.312.954-.043 1.24-.052 3.656-.052"/><path d="M9.047 12.064a3.016 3.016 0 1 1 .002-6.032 3.016 3.016 0 0 1-.002 6.032m0-7.663a4.646 4.646 0 1 0 0 9.292 4.646 4.646 0 0 0 0-9.292m5.915-.183a1.085 1.085 0 1 1-2.17 0 1.085 1.085 0 0 1 2.17 0"/></g></svg>