<svg clip-rule="evenodd" fill-rule="evenodd" stroke-linejoin="round" stroke-miterlimit="1.414" viewBox="0 0 18 17" xmlns="http://www.w3.org/2000/svg"><g fill="#fff"><path d="M.223 5.506H4.02v11.416H.223z"/><path d="M2.121 3.947h-.025C.823 3.947 0 3.069 0 1.974 0 .854.849 0 2.146 0c1.299 0 2.098.854 2.122 1.974 0 1.095-.823 1.973-2.147 1.973m15.583 12.976h-3.795v-6.108c0-1.534-.549-2.583-1.923-2.583-1.047 0-1.673.709-1.947 1.39-.101.244-.126.582-.126.925v6.376H6.119s.049-10.346 0-11.417h3.794v1.617c.506-.779 1.407-1.884 3.421-1.884 2.496 0 4.37 1.63 4.37 5.137z" fill-rule="nonzero"/></g></svg>