<svg clip-rule="evenodd" fill-rule="evenodd" stroke-linejoin="round" stroke-miterlimit="1.414" viewBox="0 0 24 17" xmlns="http://www.w3.org/2000/svg"><path d="M9.274 11.578a11769.9 11769.9 0 0 0 6.014-3.474L9.274 4.63zm2.166 4.668c-1.633-.043-3.416-.071-5.197-.144-1.019-.041-2.034-.143-3.05-.24-.844-.08-1.579-.399-2.137-1.067-.373-.447-.565-.969-.672-1.533-.173-.914-.252-1.837-.306-2.763a36.99 36.99 0 0 1-.053-3.708C.078 5.505.15 4.222.382 2.953.547 2.045.963 1.307 1.757.806 2.198.526 2.691.41 3.2.343 4.56.162 5.928.093 7.296.066 9.203.029 11.111-.001 13.017 0c1.296.002 2.592.051 3.887.101 1.083.042 2.166.106 3.24.266 1.468.217 2.382 1.102 2.659 2.579.173.914.252 1.838.306 2.765.074 1.23.104 2.46.054 3.693-.054 1.29-.125 2.577-.357 3.852-.166.907-.582 1.645-1.375 2.148-.442.279-.935.394-1.444.462-1.345.179-2.699.238-4.054.276-1.448.042-2.895.068-4.493.104" fill="#fff" fill-rule="nonzero"/></svg>