<svg clip-rule="evenodd" fill-rule="evenodd" stroke-linejoin="round" stroke-miterlimit="1.414" viewBox="0 0 12 12" xmlns="http://www.w3.org/2000/svg"><path d="M11.227 7.989a.973.973 0 0 0-.23-.029l-.011.001a7.968 7.968 0 0 1-3.134-1.088L6.399 8.358c-1.074-.724-2.004-1.691-2.728-2.691h-.004.004l1.455-1.486A8.034 8.034 0 0 1 4.038 1.03l.002-.018c0-.08-.012-.161-.029-.235A1.006 1.006 0 0 0 3.037 0H1.003C.458 0 .015.437.002.979L0 1.004c0 .058.008.114.017.17.21 2.186 1 4.194 2.212 5.874a12.04 12.04 0 0 0 2.725 2.724 11.988 11.988 0 0 0 5.87 2.211c.056.01.114.017.173.017l.024-.003a1 1 0 0 0 .979-1V8.963c0-.474-.33-.87-.773-.974" fill="#fff" fill-rule="nonzero"/></svg>