<?xml version="1.0" encoding="UTF-8" standalone="no"?>
<svg xmlns="http://www.w3.org/2000/svg" xmlns:xlink="http://www.w3.org/1999/xlink" xmlns:serif="http://www.serif.com/" width="100%" height="100%" viewBox="0 0 26 26" xml:space="preserve" style="fill-rule:evenodd;clip-rule:evenodd;stroke-linejoin:round;stroke-miterlimit:1.41421;">
    <g transform="matrix(1,0,0,0.990476,-452,-4303.62)">
        <g transform="matrix(1,0,0,1,-156.269,3194.44)">
            <path d="M609.269,1150.56L631.769,1150.56L629.718,1174.17L620.519,1176.81L611.32,1174.17L609.269,1150.56ZM627.96,1172.76L629.718,1152.56L611.32,1152.56L613.077,1172.76L620.519,1174.87L627.96,1172.76Z" style="fill:rgb(36,76,142);fill-opacity:0.5;fill-rule:nonzero;"></path>
        </g>
        <path d="M467,4363L469,4363L469,4365L467,4365L467,4367L465,4367L465,4365L463,4365L463,4363L465,4363L465,4361L467,4361L467,4363Z" style="fill:rgb(36,76,142);fill-rule:nonzero;"></path>
        <g transform="matrix(1,0,0,1,-38,0)">
            <path d="M498.3,4353L498.559,4356L505.389,4356L505,4359L499,4359L499,4365.5L496.508,4364L495.219,4350L509,4350L508.667,4353L498.3,4353Z" style="fill:rgb(36,76,142);fill-rule:nonzero;"></path>
        </g>
    </g>
</svg>
