<?xml version="1.0" encoding="UTF-8" standalone="no"?>
<svg xmlns="http://www.w3.org/2000/svg" xmlns:xlink="http://www.w3.org/1999/xlink" xmlns:serif="http://www.serif.com/" width="100%" height="100%" viewBox="0 0 26 26" xml:space="preserve" style="fill-rule:evenodd;clip-rule:evenodd;stroke-linejoin:round;stroke-miterlimit:1.41421;">
    <g transform="matrix(1,0,0,0.990476,-451,-4254.1)">
        <g transform="matrix(1,0,0,1,-157.269,3144.44)">
            <path d="M609.269,1150.56L631.769,1150.56L629.718,1174.17L620.519,1176.81L611.32,1174.17L609.269,1150.56ZM627.96,1172.76L629.718,1152.56L611.32,1152.56L613.077,1172.76L620.519,1174.87L627.96,1172.76Z" style="fill:rgb(36,76,142);fill-opacity:0.498039;fill-rule:nonzero;"></path>
        </g>
        <g transform="matrix(0.0422893,0,0,0.0426959,448.564,4292.32)">
            <path d="M285.5,178.9L339.3,178.9L338.5,546L185.191,496.8L178.8,432.5L286.5,462.3C286.5,462.3 286.5,177.9 285.5,178.9Z" style="fill:rgb(36,78,144);fill-rule:nonzero;"></path>
            <path d="M360.5,178L533.5,178L529.3,239.7L412.7,240.7L413.2,339.5L521,326.5L509,501.6L357.9,545L357.9,476L465.1,448.8L468.8,393.4L360.6,412.7C360.5,412.7 361.3,177.2 360.5,178Z" style="fill:rgb(36,78,144);fill-rule:nonzero;"></path>
        </g>
    </g>
</svg>
