<?xml version="1.0" encoding="UTF-8" standalone="no"?>
<svg xmlns="http://www.w3.org/2000/svg" xmlns:xlink="http://www.w3.org/1999/xlink" xmlns:serif="http://www.serif.com/" width="100%" height="100%" viewBox="0 0 26 26" xml:space="preserve" style="fill-rule:evenodd;clip-rule:evenodd;stroke-linejoin:round;stroke-miterlimit:1.41421;">
    <g transform="matrix(1,0,0,0.990476,-451,-4199.62)">
        <g transform="matrix(1,0,0,1,-157.269,3089.44)">
            <path d="M614.191,1164.56L613.469,1155.56L627.59,1155.56L627.316,1158.56L616.534,1158.56L616.769,1161.56L627.081,1161.56L626.261,1170.13L620.519,1171.77L614.718,1170.13L614.367,1165.62L617.179,1165.62L617.355,1167.9L620.519,1168.78L623.624,1167.9L623.976,1164.56L614.191,1164.56Z" style="fill:rgb(36,76,142);fill-rule:nonzero;"></path>
        </g>
        <g transform="matrix(1,0,0,1,-157.269,3089.44)">
            <path d="M609.269,1150.56L631.769,1150.56L629.718,1174.17L620.519,1176.81L611.32,1174.17L609.269,1150.56ZM627.96,1172.76L629.718,1152.56L611.32,1152.56L613.077,1172.76L620.519,1174.87L627.96,1172.76Z" style="fill:rgb(36,76,142);fill-opacity:0.5;fill-rule:nonzero;"></path>
        </g>
    </g>
</svg>
