<?xml version="1.0" encoding="UTF-8" standalone="no"?>
<svg xmlns="http://www.w3.org/2000/svg" xmlns:xlink="http://www.w3.org/1999/xlink" xmlns:serif="http://www.serif.com/" width="100%" height="100%" viewBox="0 0 26 26" xml:space="preserve" style="fill-rule:evenodd;clip-rule:evenodd;stroke-linejoin:round;stroke-miterlimit:1.41421;">
    <g transform="matrix(0.932526,0,0,0.954348,-418.822,-4281.27)">
        <g transform="matrix(0.00810262,0,0,0.00810262,448.503,4484.96)">
            <circle cx="1806.5" cy="1807.1" r="302.6" style="fill:rgb(36,76,142);"></circle>
        </g>
        <path d="M463.184,4489.93C463.71,4489.47 464.257,4489.02 464.823,4488.61C465.93,4487.8 467.229,4487.16 468.612,4487.12C468.725,4487.11 468.724,4487.11 468.837,4487.11C470.927,4487.23 471.774,4489.91 471.838,4491.5C471.88,4492.53 471.738,4493.57 471.521,4494.6C473.178,4495.11 474.718,4495.93 476.017,4497.27C477.172,4498.46 477.466,4500.4 476.09,4501.96C474.975,4503.22 473.45,4504 471.746,4504.49C471.978,4505.85 472.02,4507.26 471.814,4508.71C471.549,4510.58 470.281,4512.41 467.968,4512.08C466.05,4511.81 464.491,4510.71 463.14,4509.35C462.751,4509.71 462.353,4510.04 461.946,4510.36C459.993,4511.9 457.082,4513.41 455.226,4510.99C453.811,4509.15 454.249,4506.69 454.779,4504.56C453.565,4504.15 452.406,4503.6 451.328,4502.87C449.918,4501.92 448.694,4500.34 449.274,4498.61C449.987,4496.48 452.26,4495.5 454.691,4494.84C454.47,4493.65 454.375,4492.43 454.433,4491.19C454.442,4491 454.455,4490.81 454.475,4490.62C454.654,4488.95 455.514,4487.04 457.711,4487.14C459.877,4487.27 461.653,4488.43 463.184,4489.93ZM469.849,4504.94C468.82,4505.13 467.76,4505.25 466.713,4505.35C466.015,4506.31 465.261,4507.22 464.46,4508.06C464.785,4508.34 465.118,4508.61 465.46,4508.87C466.739,4509.84 468.458,4510.93 469.472,4510.11C470.677,4509.12 470.186,4507.35 470.014,4505.98C469.971,4505.63 469.915,4505.28 469.849,4504.94ZM456.472,4505.04C456.316,4505.86 456.216,4506.7 456.181,4507.56C456.174,4507.74 456.172,4507.92 456.176,4508.1C456.179,4508.24 456.185,4508.39 456.198,4508.53C456.207,4508.65 456.22,4508.76 456.237,4508.87C456.391,4509.88 457.468,4510.62 459.063,4510C460.165,4509.58 461.134,4508.92 462.009,4508.12C461.588,4507.63 461.185,4507.13 460.795,4506.64C460.505,4506.27 460.217,4505.9 459.935,4505.53C458.759,4505.45 457.598,4505.29 456.472,4505.04ZM464.254,4505.54C463.517,4505.58 462.777,4505.6 462.04,4505.6C462.411,4506.04 462.798,4506.47 463.201,4506.88C463.566,4506.45 463.916,4506.01 464.254,4505.54ZM465.716,4495.6C464.957,4495.54 464.197,4495.52 463.44,4495.51C463.139,4495.5 463.14,4495.5 462.838,4495.51C462.169,4495.52 461.489,4495.53 460.808,4495.55C459.886,4496.86 459.044,4498.22 458.338,4499.64C458.974,4501.05 459.727,4502.41 460.594,4503.69C461.448,4503.73 462.3,4503.75 463.141,4503.75C463.912,4503.75 464.696,4503.74 465.481,4503.71C465.747,4503.29 466.008,4502.87 466.266,4502.44C466.854,4501.47 467.448,4500.46 467.991,4499.42C467.343,4498.08 466.576,4496.8 465.716,4495.6ZM468.955,4501.71C468.635,4502.33 468.292,4502.94 467.93,4503.53C468.445,4503.47 468.955,4503.38 469.456,4503.28C469.308,4502.75 469.141,4502.23 468.955,4501.71ZM457.403,4501.77C457.222,4502.25 457.058,4502.73 456.913,4503.23C457.431,4503.34 457.955,4503.42 458.482,4503.49C458.104,4502.93 457.744,4502.36 457.403,4501.77ZM455.06,4496.41C453.773,4496.84 452.584,4497.48 451.567,4498.45C450.519,4499.44 451.924,4501.32 453.58,4502.11C454.124,4502.38 454.682,4502.6 455.25,4502.78C455.549,4501.75 455.907,4500.73 456.321,4499.73C455.81,4498.65 455.38,4497.55 455.06,4496.41ZM471.031,4496.55C470.747,4497.52 470.407,4498.49 470.017,4499.43C470.557,4500.51 471.012,4501.62 471.344,4502.76C472.55,4502.33 473.672,4501.71 474.654,4500.82C475.116,4500.41 475.505,4499.84 475.363,4499.22C475.053,4497.86 473.48,4497.52 472.321,4497.03C471.897,4496.85 471.466,4496.69 471.031,4496.55ZM467.867,4495.82C468.235,4496.37 468.592,4496.92 468.93,4497.47C469.126,4497.02 469.306,4496.57 469.466,4496.12C468.938,4496 468.404,4495.9 467.867,4495.82ZM458.365,4495.72C457.892,4495.78 457.424,4495.84 456.963,4495.93C457.105,4496.41 457.261,4496.89 457.429,4497.37C457.722,4496.81 458.035,4496.26 458.365,4495.72ZM461.844,4491.22C461.6,4490.99 461.353,4490.77 461.104,4490.56C460.073,4489.68 459.017,4488.91 457.482,4488.91C456.387,4488.98 456.166,4490.4 456.151,4491.24C456.147,4491.46 456.152,4491.68 456.165,4491.9C456.179,4492.14 456.201,4492.37 456.229,4492.61C456.265,4492.9 456.311,4493.2 456.365,4493.5C456.419,4493.8 456.482,4494.09 456.552,4494.39C457.549,4494.18 458.559,4494.02 459.574,4493.92C460.27,4492.97 461.028,4492.06 461.844,4491.22ZM470.008,4494.22C470.31,4492.78 470.328,4491.39 469.908,4490.1C469.715,4489.51 469.443,4488.85 468.628,4488.89C466.898,4488.98 465.512,4489.96 464.332,4491.16C464.923,4491.85 465.478,4492.56 466.007,4493.26C466.147,4493.44 466.287,4493.63 466.426,4493.81C467.632,4493.88 468.839,4493.99 470.008,4494.22ZM463.151,4492.5C462.87,4492.84 462.601,4493.18 462.341,4493.51C462.277,4493.59 462.214,4493.67 462.151,4493.75C462.586,4493.74 463.022,4493.73 463.457,4493.73C463.728,4493.74 464,4493.74 464.274,4493.75C463.91,4493.32 463.536,4492.9 463.151,4492.5Z" style="fill:rgb(36,76,142);fill-opacity:0.5;fill-rule:nonzero;"></path>
    </g>
</svg>
