<?xml version="1.0" encoding="UTF-8" standalone="no"?>
<svg xmlns="http://www.w3.org/2000/svg" xmlns:xlink="http://www.w3.org/1999/xlink" xmlns:serif="http://www.serif.com/" width="100%" height="100%" viewBox="0 0 26 26" xml:space="preserve" style="fill-rule:evenodd;clip-rule:evenodd;stroke-linejoin:round;stroke-miterlimit:1.41421;">
    <g transform="matrix(0.985573,0,0,0.974549,-443.007,-4613.52)">
        <g transform="matrix(0.608543,0,0,0.8796,447.545,4726.73)">
            <path d="M32,20L29.972,31L32.618,31L33.145,28L34.791,28C38.237,28 40.112,27.202 40.813,24.244C41.416,21.703 39.875,20 37.333,20L32,20ZM35.228,26L33.518,26L34.273,22L36.334,22C38.042,22 38.401,22.77 38.312,23.627C38.083,25.833 36.708,26 35.228,26Z" style="fill:white;fill-rule:nonzero;"></path>
        </g>
        <g transform="matrix(0.608543,0,0,0.8796,447.545,4726.73)">
            <path d="M11,20L8.972,31L11.618,31L12.145,28L13.791,28C17.237,28 19.112,27.202 19.813,24.244C20.416,21.703 18.875,20 16.333,20L11,20ZM14.228,26L12.518,26L13.273,22L15.334,22C17.042,22 17.401,22.77 17.312,23.627C17.083,25.833 15.708,26 14.228,26Z" style="fill:white;fill-rule:nonzero;"></path>
        </g>
        <g transform="matrix(0.543478,0,0,1.04167,448.913,4721.46)">
            <path d="M25.32,12.041C41.729,12.207 55.035,22.345 47.388,30.618C40.658,37.898 19.476,40.159 7.864,34.379C-5.785,27.584 1.765,12.273 24.68,12.041C25,12.04 24.999,12.04 25.32,12.041ZM24.726,13.961C10.775,14.102 -0.625,22.695 5.927,29.783C11.664,35.99 29.704,37.914 39.595,32.99C51.208,27.209 44.827,14.159 25.274,13.961C24.999,13.96 25,13.96 24.726,13.961Z" style="fill:white;fill-opacity:0.5;fill-rule:nonzero;"></path>
        </g>
        <g transform="matrix(0.608543,0,0,0.8796,447.545,4726.73)">
            <path d="M29.682,20.727C29.117,20.209 28.121,20 26.636,20L24.297,20L25.131,16L22.507,16L20,28L22.625,28L23.891,22L25.989,22C26.658,22 27.1,22.112 27.306,22.333C27.511,22.556 27.556,22.976 27.437,23.584L26.479,28L29.145,28L30.183,23.222C30.406,22.077 30.237,21.237 29.682,20.727Z" style="fill:white;fill-rule:nonzero;"></path>
        </g>
    </g>
</svg>
